<svg version="1.1" id="Layer_1" xmlns="http://www.w3.org/2000/svg" xmlns:xlink="http://www.w3.org/1999/xlink" x="0px" y="0px"
	 width="100%" viewBox="0 0 1000 942" enable-background="new 0 0 1000 942" xml:space="preserve">
<path fill="#FF0000" opacity="1.000000" stroke="none" 
	d="
M877.000000,1.000009 
	C889.687561,1.000000 902.375122,1.000000 915.277466,1.348866 
	C917.096069,2.365199 918.664124,3.141556 920.309326,3.683229 
	C936.386169,8.976131 947.931824,20.324326 957.505737,33.382381 
	C970.287964,50.816284 980.389038,69.975014 985.373657,91.145874 
	C989.140076,107.142548 991.472290,123.500778 993.915161,139.777267 
	C995.714294,151.764099 996.971191,163.855179 997.893250,175.943756 
	C998.685852,186.335312 998.597839,196.792114 999.083008,207.211487 
	C999.143066,208.501282 1000.333374,209.738449 1001.000000,211.000000 
	C1001.000000,294.687561 1001.000000,378.375122 1000.582275,462.355927 
	C999.776855,463.830902 999.079468,465.004486 999.048279,466.195526 
	C998.643738,481.625397 998.452148,497.061462 997.968201,512.488464 
	C997.444153,529.192444 996.625427,545.887085 996.019592,562.588806 
	C995.605042,574.018433 995.196106,585.451172 995.027466,596.886169 
	C994.610718,625.147400 994.359009,653.411011 993.992126,681.673096 
	C993.698730,704.270569 993.491516,726.871033 992.932983,749.462402 
	C992.655762,760.672241 991.946899,771.889099 990.945007,783.059021 
	C989.538330,798.742004 987.879333,814.409058 985.955505,830.037048 
	C983.861511,847.047241 980.919495,863.918823 973.983948,879.762878 
	C973.057495,881.879333 971.262329,884.165894 969.263977,885.177002 
	C950.724060,894.557617 932.128967,903.838074 913.382812,912.798096 
	C904.731628,916.933044 896.013855,921.647217 886.791809,923.716064 
	C868.989990,927.709534 850.879761,930.578430 832.763977,932.848694 
	C815.961487,934.954407 799.000916,936.466919 782.081299,936.804626 
	C759.333435,937.258667 736.557373,936.372925 713.794739,935.987915 
	C698.195190,935.724121 682.592651,934.908997 667.000610,935.098022 
	C642.464966,935.395447 617.928528,936.116882 593.409485,937.088562 
	C581.591736,937.556885 569.797913,938.865112 558.027344,940.114258 
	C555.280457,940.405762 552.672119,942.003357 550.000000,943.000000 
	C542.645752,943.000000 535.291504,943.000000 527.674438,942.609070 
	C520.049500,941.145386 512.684631,939.166382 505.325867,939.188538 
	C489.975067,939.234863 474.626038,940.310608 459.282623,941.088257 
	C458.491455,941.128357 457.759521,942.335938 457.000000,943.000000 
	C438.979095,943.000000 420.958221,943.000000 402.734436,942.656433 
	C401.501892,939.522461 400.472198,936.732117 399.442505,933.941711 
	C398.838654,933.888733 398.234772,933.835754 397.630920,933.782776 
	C396.087280,936.855164 394.543640,939.927612 393.000000,943.000000 
	C389.969391,943.000000 386.938812,943.000000 383.764771,942.729248 
	C381.312042,940.699646 378.992706,938.953857 376.695312,937.179565 
	C368.853119,931.123047 361.723389,933.226440 357.000000,943.000000 
	C354.299988,943.000000 351.599976,943.000000 348.759277,942.716675 
	C342.469147,938.499939 336.347168,934.522766 330.162415,930.645691 
	C324.172882,926.890930 319.577209,929.480225 316.311554,933.423584 
	C314.173096,936.005859 312.585480,939.044312 309.849060,943.272034 
	C307.646393,929.935364 305.688232,918.079224 303.730072,906.223145 
	C303.276215,906.231018 302.822327,906.238892 302.368469,906.246765 
	C301.281006,908.721680 300.154938,911.180603 299.118591,913.676758 
	C298.319336,915.601746 298.186188,918.557861 296.792969,919.341309 
	C292.489960,921.760681 292.890594,925.481201 293.047607,929.225220 
	C293.240356,933.822021 293.671753,938.408875 294.000000,943.000000 
	C292.933319,943.000000 291.866669,943.000000 290.674561,942.658447 
	C288.366058,929.474365 286.181549,916.632080 284.000671,903.789185 
	C283.195068,899.045044 283.249786,894.029724 280.091248,889.461060 
	C276.161285,896.214539 275.825531,897.948730 277.743317,900.187195 
	C281.486816,904.556641 282.162323,913.345947 279.020416,917.728577 
	C278.625031,918.280212 277.675140,919.017883 277.251434,918.874329 
	C273.554047,917.622070 274.239044,920.208679 273.966278,922.281433 
	C273.056244,929.197998 272.000153,936.095337 271.000000,943.000000 
	C269.285645,943.000000 267.571289,943.000000 265.741577,942.717285 
	C263.015991,937.498962 260.405731,932.563354 257.951996,927.923767 
	C255.491287,928.919128 254.003891,929.520752 252.127808,930.279602 
	C252.127808,922.790894 252.127808,916.157043 252.127808,909.523254 
	C251.719940,909.451477 251.312057,909.379639 250.904190,909.307861 
	C248.074356,914.035095 245.244522,918.762268 242.315109,923.655884 
	C241.442871,923.122437 240.403885,922.391968 239.284698,921.817810 
	C230.893890,917.513123 222.721542,912.673828 214.036301,909.074646 
	C196.400574,901.766296 177.446396,902.242065 158.837875,901.106018 
	C153.113403,900.756653 147.311768,901.933289 141.546066,901.926147 
	C135.446320,901.918579 129.340500,901.425049 123.249626,900.976868 
	C115.549599,900.410278 107.818886,899.992126 100.176979,898.953857 
	C75.618706,895.617249 54.703102,884.439209 37.734169,866.840576 
	C27.791595,856.528992 19.742346,844.373169 11.073274,832.872131 
	C9.740679,831.104187 8.897149,828.308167 9.138566,826.133118 
	C9.965668,818.681335 11.154840,811.249634 12.636167,803.897034 
	C13.784975,798.194824 14.813940,792.786682 11.764369,787.230103 
	C10.266406,784.500732 9.327110,781.199768 9.093821,778.085693 
	C7.886802,761.973755 7.503304,745.784912 5.827373,729.727844 
	C4.401543,716.066956 3.093951,702.534912 4.887870,688.818237 
	C5.327385,685.457642 4.421360,681.932007 4.237884,678.476746 
	C3.808965,670.399353 2.002041,662.068298 3.353272,654.291748 
	C6.121680,638.359009 8.831267,622.562683 8.076485,606.303650 
	C7.793025,600.197510 12.207716,596.973755 18.140995,598.674683 
	C20.965960,599.484558 22.402275,598.393616 22.861076,596.116028 
	C23.794296,591.483154 24.795349,586.776367 24.894592,582.081604 
	C25.086243,573.015442 27.101952,564.351013 31.885361,556.886353 
	C35.114754,551.846619 40.067131,547.766602 44.743206,543.847107 
	C48.074474,541.054871 52.369183,539.440430 55.934902,536.883423 
	C57.108822,536.041565 58.042866,533.824463 57.895947,532.355347 
	C57.114937,524.545227 55.887165,516.781311 54.942223,508.985809 
	C53.246773,494.998871 50.844666,481.038055 50.191418,466.998657 
	C49.263123,447.047943 49.721687,427.050568 53.944397,407.343079 
	C55.229000,401.347809 53.063320,396.145264 47.922249,393.108826 
	C40.369675,388.648102 36.639145,382.050659 34.987095,373.835938 
	C34.411945,370.976074 33.746819,368.134308 33.137783,365.352783 
	C30.931023,366.749756 29.279161,367.795471 27.627300,368.841187 
	C27.084879,366.679138 26.253586,364.542999 26.056614,362.349915 
	C25.555126,356.766357 25.648817,351.117859 24.945198,345.566162 
	C23.094824,330.966400 21.575546,316.282806 18.786068,301.852661 
	C13.059115,272.226807 5.888836,242.870743 2.906711,212.753296 
	C2.843234,212.112213 1.660569,211.581955 1.000002,211.000000 
	C1.000000,194.312439 1.000000,177.624878 1.369788,160.697830 
	C2.826979,156.943802 3.948492,153.439377 4.995394,149.912811 
	C8.147197,139.295715 13.946607,130.151443 21.957550,122.765175 
	C31.453218,114.009979 43.351486,109.301987 55.382545,104.930855 
	C64.370110,101.665497 73.151741,97.805466 81.901550,93.931274 
	C84.383133,92.832504 86.211342,90.195930 88.711967,89.211792 
	C117.046219,78.060699 145.688461,67.770889 175.628922,61.772060 
	C198.322311,57.225246 221.044205,52.688370 243.913544,49.195637 
	C260.933716,46.596222 278.187714,45.370907 295.379395,44.098846 
	C310.378571,42.989014 325.434631,42.158180 340.468292,42.113613 
	C366.394257,42.036747 392.323181,42.613785 418.249207,43.020031 
	C431.848572,43.233128 445.445343,43.635654 459.041718,44.009720 
	C469.308228,44.292175 479.571472,44.691643 489.837555,44.991142 
	C502.267883,45.353775 514.698303,45.875687 527.131104,45.955204 
	C551.123108,46.108654 575.116760,46.000565 599.109741,45.998180 
	C600.275696,45.998062 601.469055,46.130264 602.603577,45.934238 
	C621.572693,42.656719 640.526001,39.287170 659.499939,36.038139 
	C685.235413,31.631281 710.954712,27.115845 736.739563,23.015919 
	C755.470276,20.037649 774.242371,17.143690 793.096741,15.176708 
	C807.540833,13.669820 822.142761,13.679934 836.673096,12.987392 
	C838.471802,12.901659 840.332886,12.898641 842.045227,12.424535 
	C853.167603,9.345112 864.263977,6.170731 875.339172,2.925979 
	C876.022278,2.725855 876.452271,1.662006 877.000000,1.000009 
M644.578247,371.055695 
	C692.412720,281.138000 740.247192,191.220291 788.196106,101.087463 
	C596.326965,101.087463 405.098389,101.087463 213.987213,101.087463 
	C213.987213,150.645065 213.987213,199.865051 213.987213,249.435577 
	C319.442627,249.435577 424.515198,249.435577 530.444946,249.435577 
	C424.739075,447.551056 319.369659,645.036011 213.752411,842.985474 
	C405.562683,842.985474 596.747681,842.985474 788.088013,842.985474 
	C788.088013,793.537354 788.088013,744.329956 788.088013,694.621094 
	C682.925415,694.621094 578.069885,694.621094 472.396576,694.621094 
	C529.915710,586.488220 587.046265,479.085907 644.578247,371.055695 
z"/>
<path fill="#000000" opacity="1.000000" stroke="none" 
	d="
M876.531372,1.000009 
	C876.452271,1.662006 876.022278,2.725855 875.339172,2.925979 
	C864.263977,6.170731 853.167603,9.345112 842.045227,12.424535 
	C840.332886,12.898641 838.471802,12.901659 836.673096,12.987392 
	C822.142761,13.679934 807.540833,13.669820 793.096741,15.176708 
	C774.242371,17.143690 755.470276,20.037649 736.739563,23.015919 
	C710.954712,27.115845 685.235413,31.631281 659.499939,36.038139 
	C640.526001,39.287170 621.572693,42.656719 602.603577,45.934238 
	C601.469055,46.130264 600.275696,45.998062 599.109741,45.998180 
	C575.116760,46.000565 551.123108,46.108654 527.131104,45.955204 
	C514.698303,45.875687 502.267883,45.353775 489.837555,44.991142 
	C479.571472,44.691643 469.308228,44.292175 459.041718,44.009720 
	C445.445343,43.635654 431.848572,43.233128 418.249207,43.020031 
	C392.323181,42.613785 366.394257,42.036747 340.468292,42.113613 
	C325.434631,42.158180 310.378571,42.989014 295.379395,44.098846 
	C278.187714,45.370907 260.933716,46.596222 243.913544,49.195637 
	C221.044205,52.688370 198.322311,57.225246 175.628922,61.772060 
	C145.688461,67.770889 117.046219,78.060699 88.711967,89.211792 
	C86.211342,90.195930 84.383133,92.832504 81.901550,93.931274 
	C73.151741,97.805466 64.370110,101.665497 55.382545,104.930855 
	C43.351486,109.301987 31.453218,114.009979 21.957550,122.765175 
	C13.946607,130.151443 8.147197,139.295715 4.995394,149.912811 
	C3.948492,153.439377 2.826979,156.943802 1.369788,160.229172 
	C1.000000,107.022400 1.000000,54.044800 1.000000,1.000000 
	C292.687561,1.000000 584.375122,1.000000 876.531372,1.000009 
z"/>
<path fill="#000000" opacity="1.000000" stroke="none" 
	d="
M1.000002,211.468658 
	C1.660569,211.581955 2.843234,212.112213 2.906711,212.753296 
	C5.888836,242.870743 13.059115,272.226807 18.786068,301.852661 
	C21.575546,316.282806 23.094824,330.966400 24.945198,345.566162 
	C25.648817,351.117859 25.555126,356.766357 26.056614,362.349915 
	C26.253586,364.542999 27.084879,366.679138 27.627300,368.841187 
	C29.279161,367.795471 30.931023,366.749756 33.137783,365.352783 
	C33.746819,368.134308 34.411945,370.976074 34.987095,373.835938 
	C36.639145,382.050659 40.369675,388.648102 47.922249,393.108826 
	C53.063320,396.145264 55.229000,401.347809 53.944397,407.343079 
	C49.721687,427.050568 49.263123,447.047943 50.191418,466.998657 
	C50.844666,481.038055 53.246773,494.998871 54.942223,508.985809 
	C55.887165,516.781311 57.114937,524.545227 57.895947,532.355347 
	C58.042866,533.824463 57.108822,536.041565 55.934902,536.883423 
	C52.369183,539.440430 48.074474,541.054871 44.743206,543.847107 
	C40.067131,547.766602 35.114754,551.846619 31.885361,556.886353 
	C27.101952,564.351013 25.086243,573.015442 24.894592,582.081604 
	C24.795349,586.776367 23.794296,591.483154 22.861076,596.116028 
	C22.402275,598.393616 20.965960,599.484558 18.140995,598.674683 
	C12.207716,596.973755 7.793025,600.197510 8.076485,606.303650 
	C8.831267,622.562683 6.121680,638.359009 3.353272,654.291748 
	C2.002041,662.068298 3.808965,670.399353 4.237884,678.476746 
	C4.421360,681.932007 5.327385,685.457642 4.887870,688.818237 
	C3.093951,702.534912 4.401543,716.066956 5.827373,729.727844 
	C7.503304,745.784912 7.886802,761.973755 9.093821,778.085693 
	C9.327110,781.199768 10.266406,784.500732 11.764369,787.230103 
	C14.813940,792.786682 13.784975,798.194824 12.636167,803.897034 
	C11.154840,811.249634 9.965668,818.681335 9.138566,826.133118 
	C8.897149,828.308167 9.740679,831.104187 11.073274,832.872131 
	C19.742346,844.373169 27.791595,856.528992 37.734169,866.840576 
	C54.703102,884.439209 75.618706,895.617249 100.176979,898.953857 
	C107.818886,899.992126 115.549599,900.410278 123.249626,900.976868 
	C129.340500,901.425049 135.446320,901.918579 141.546066,901.926147 
	C147.311768,901.933289 153.113403,900.756653 158.837875,901.106018 
	C177.446396,902.242065 196.400574,901.766296 214.036301,909.074646 
	C222.721542,912.673828 230.893890,917.513123 239.284698,921.817810 
	C240.403885,922.391968 241.442871,923.122437 242.315109,923.655884 
	C245.244522,918.762268 248.074356,914.035095 250.904190,909.307861 
	C251.312057,909.379639 251.719940,909.451477 252.127808,909.523254 
	C252.127808,916.157043 252.127808,922.790894 252.127808,930.279602 
	C254.003891,929.520752 255.491287,928.919128 257.951996,927.923767 
	C260.405731,932.563354 263.015991,937.498962 265.313110,942.717285 
	C177.038666,943.000000 89.077324,943.000000 1.000000,943.000000 
	C1.000000,699.312439 1.000000,455.624878 1.000002,211.468658 
z"/>
<path fill="#000000" opacity="1.000000" stroke="none" 
	d="
M550.468628,943.000000 
	C552.672119,942.003357 555.280457,940.405762 558.027344,940.114258 
	C569.797913,938.865112 581.591736,937.556885 593.409485,937.088562 
	C617.928528,936.116882 642.464966,935.395447 667.000610,935.098022 
	C682.592651,934.908997 698.195190,935.724121 713.794739,935.987915 
	C736.557373,936.372925 759.333435,937.258667 782.081299,936.804626 
	C799.000916,936.466919 815.961487,934.954407 832.763977,932.848694 
	C850.879761,930.578430 868.989990,927.709534 886.791809,923.716064 
	C896.013855,921.647217 904.731628,916.933044 913.382812,912.798096 
	C932.128967,903.838074 950.724060,894.557617 969.263977,885.177002 
	C971.262329,884.165894 973.057495,881.879333 973.983948,879.762878 
	C980.919495,863.918823 983.861511,847.047241 985.955505,830.037048 
	C987.879333,814.409058 989.538330,798.742004 990.945007,783.059021 
	C991.946899,771.889099 992.655762,760.672241 992.932983,749.462402 
	C993.491516,726.871033 993.698730,704.270569 993.992126,681.673096 
	C994.359009,653.411011 994.610718,625.147400 995.027466,596.886169 
	C995.196106,585.451172 995.605042,574.018433 996.019592,562.588806 
	C996.625427,545.887085 997.444153,529.192444 997.968201,512.488464 
	C998.452148,497.061462 998.643738,481.625397 999.048279,466.195526 
	C999.079468,465.004486 999.776855,463.830902 1000.582275,462.824585 
	C1001.000000,622.924805 1001.000000,782.849609 1001.000000,943.000000 
	C850.979187,943.000000 700.958252,943.000000 550.468628,943.000000 
z"/>
<path fill="#000000" opacity="1.000000" stroke="none" 
	d="
M1001.000000,210.531342 
	C1000.333374,209.738449 999.143066,208.501282 999.083008,207.211487 
	C998.597839,196.792114 998.685852,186.335312 997.893250,175.943756 
	C996.971191,163.855179 995.714294,151.764099 993.915161,139.777267 
	C991.472290,123.500778 989.140076,107.142548 985.373657,91.145874 
	C980.389038,69.975014 970.287964,50.816284 957.505737,33.382381 
	C947.931824,20.324326 936.386169,8.976131 920.309326,3.683229 
	C918.664124,3.141556 917.096069,2.365199 915.746094,1.348866 
	C944.291260,1.000000 972.582520,1.000000 1001.000000,1.000000 
	C1001.000000,70.687515 1001.000000,140.375092 1001.000000,210.531342 
z"/>
<path fill="#000000" opacity="1.000000" stroke="none" 
	d="
M294.468658,943.000000 
	C293.671753,938.408875 293.240356,933.822021 293.047607,929.225220 
	C292.890594,925.481201 292.489960,921.760681 296.792969,919.341309 
	C298.186188,918.557861 298.319336,915.601746 299.118591,913.676758 
	C300.154938,911.180603 301.281006,908.721680 302.368469,906.246765 
	C302.822327,906.238892 303.276215,906.231018 303.730072,906.223145 
	C305.688232,918.079224 307.646393,929.935364 309.849060,943.272034 
	C312.585480,939.044312 314.173096,936.005859 316.311554,933.423584 
	C319.577209,929.480225 324.172882,926.890930 330.162415,930.645691 
	C336.347168,934.522766 342.469147,938.499939 348.309265,942.716675 
	C330.312439,943.000000 312.624878,943.000000 294.468658,943.000000 
z"/>
<path fill="#000000" opacity="1.000000" stroke="none" 
	d="
M271.468262,943.000000 
	C272.000153,936.095337 273.056244,929.197998 273.966278,922.281433 
	C274.239044,920.208679 273.554047,917.622070 277.251434,918.874329 
	C277.675140,919.017883 278.625031,918.280212 279.020416,917.728577 
	C282.162323,913.345947 281.486816,904.556641 277.743317,900.187195 
	C275.825531,897.948730 276.161285,896.214539 280.091248,889.461060 
	C283.249786,894.029724 283.195068,899.045044 284.000671,903.789185 
	C286.181549,916.632080 288.366058,929.474365 290.274597,942.658447 
	C283.978851,943.000000 277.957703,943.000000 271.468262,943.000000 
z"/>
<path fill="#000000" opacity="1.000000" stroke="none" 
	d="
M457.468658,943.000000 
	C457.759521,942.335938 458.491455,941.128357 459.282623,941.088257 
	C474.626038,940.310608 489.975067,939.234863 505.325867,939.188538 
	C512.684631,939.166382 520.049500,941.145386 527.205811,942.609070 
	C503.979095,943.000000 480.958221,943.000000 457.468658,943.000000 
z"/>
<path fill="#000000" opacity="1.000000" stroke="none" 
	d="
M357.468658,943.000000 
	C361.723389,933.226440 368.853119,931.123047 376.695312,937.179565 
	C378.992706,938.953857 381.312042,940.699646 383.310669,942.729248 
	C374.645782,943.000000 366.291534,943.000000 357.468658,943.000000 
z"/>
<path fill="#000000" opacity="1.000000" stroke="none" 
	d="
M393.449982,943.000000 
	C394.543640,939.927612 396.087280,936.855164 397.630920,933.782776 
	C398.234772,933.835754 398.838654,933.888733 399.442505,933.941711 
	C400.472198,936.732117 401.501892,939.522461 402.265808,942.656433 
	C399.299988,943.000000 396.599976,943.000000 393.449982,943.000000 
z"/>
<path fill="#FFFFFF" opacity="1.000000" stroke="none" 
	d="
M644.377502,371.369629 
	C587.046265,479.085907 529.915710,586.488220 472.396576,694.621094 
	C578.069885,694.621094 682.925415,694.621094 788.088013,694.621094 
	C788.088013,744.329956 788.088013,793.537354 788.088013,842.985474 
	C596.747681,842.985474 405.562683,842.985474 213.752411,842.985474 
	C319.369659,645.036011 424.739075,447.551056 530.444946,249.435577 
	C424.515198,249.435577 319.442627,249.435577 213.987213,249.435577 
	C213.987213,199.865051 213.987213,150.645065 213.987213,101.087463 
	C405.098389,101.087463 596.326965,101.087463 788.196106,101.087463 
	C740.247192,191.220291 692.412720,281.138000 644.377502,371.369629 
z"/>
</svg>