<?xml version="1.0" standalone="no"?>
<!DOCTYPE svg PUBLIC "-//W3C//DTD SVG 20010904//EN"
 "http://www.w3.org/TR/2001/REC-SVG-20010904/DTD/svg10.dtd">
<svg version="1.0" xmlns="http://www.w3.org/2000/svg"
 width="200.000000pt" height="200.000000pt" viewBox="0 0 200.000000 200.000000"
 preserveAspectRatio="xMidYMid meet">

<g transform="translate(0.000000,200.000000) scale(0.100000,-0.100000)"
fill="#000000" stroke="none">
<path d="M0 1000 l0 -1000 1000 0 1000 0 0 1000 0 1000 -1000 0 -1000 0 0
-1000z m1152 418 c236 -108 295 -421 113 -603 -147 -147 -381 -147 -528 0 -82
82 -121 198 -105 317 18 138 121 258 261 304 67 22 190 13 259 -18z"/>
<path d="M820 1260 l0 -59 86 -3 86 -3 -86 -113 c-84 -110 -86 -115 -86 -168
l0 -54 180 0 180 0 0 60 0 60 -85 0 c-47 0 -85 2 -85 5 0 3 38 55 85 116 82
108 85 113 85 165 l0 54 -180 0 -180 0 0 -60z"/>
</g>
</svg>

